<?xml version="1.0" encoding="utf-8"?>
<!-- Generator: Adobe Illustrator 16.0.0, SVG Export Plug-In . SVG Version: 6.00 Build 0)  -->
<!DOCTYPE svg PUBLIC "-//W3C//DTD SVG 1.1//EN" "http://www.w3.org/Graphics/SVG/1.1/DTD/svg11.dtd">
<svg version="1.1" xmlns="http://www.w3.org/2000/svg" xmlns:xlink="http://www.w3.org/1999/xlink" x="0px" y="0px"
	 width="114.75px" height="144px" viewBox="0 0 114.75 144" enable-background="new 0 0 114.75 144" xml:space="preserve">
<g id="Layer_1" display="none">
	
		<image display="inline" overflow="visible" width="1061" height="1061" xlink:href="../../Downloads/nfl.jpg"  transform="matrix(0.4017 0 0 0.4017 -167.2495 -53.5)">
	</image>
</g>
<g id="Layer_2">
	<path fill="none" stroke="#e83f42" stroke-width="5" stroke-linecap="round" stroke-linejoin="round" stroke-miterlimit="10" d="
		M37.111,77.957c5.235-8.555,26.664-35.627,34.396-43.779c7.732-8.151,30.334-24.303,30.334-24.303s13.88,30.236,8.107,57.811
		c-5.572,26.632-23.678,44.993-36.974,54.505c-12.604,9.017-35.52,18.234-56.047,17.328
		C16.928,139.519,20.849,104.534,37.111,77.957z"/>
	<path fill="none" stroke="#e83f42" stroke-width="5" stroke-linecap="round" stroke-linejoin="round" stroke-miterlimit="10" d="
		M10.399,133.533c-0.637-1.539-4.713-17.105-5.925-32.84c-1.128-14.649,2.783-37.77,9.371-50.198
		c7.621-14.376,19.151-26.956,38.274-36.547c17.43-8.741,37.067-7.447,43.956-6.912L72.669,27.219c0,0-17.012,15.516-33.692,39.336
		c-16.564,23.652-23.21,56.939-23.21,56.939l-3.418,12.385l-0.443,1.09L10.399,133.533z"/>
	<path fill="none" stroke="#e83f42" stroke-width="7" stroke-linecap="round" stroke-linejoin="round" stroke-miterlimit="10" d="
		M66.708,24.721c0,0,9.611,3.494,19.002,11.576"/>
	<path fill="none" stroke="#e83f42" stroke-width="7" stroke-linecap="round" stroke-linejoin="round" stroke-miterlimit="10" d="
		M54.259,36.297c0,0,15.071,6.771,21.951,12.45"/>
	<path fill="none" stroke="#e83f42" stroke-width="7" stroke-linecap="round" stroke-linejoin="round" stroke-miterlimit="10" d="
		M42.027,48.747c0,0,11.117,3.495,22.814,12.231"/>
	<path fill="none" stroke="#e83f42" stroke-width="7" stroke-linecap="round" stroke-linejoin="round" stroke-miterlimit="10" d="
		M31.98,60.979c0,0,13.542,3.495,24.025,12.45"/>
	<path fill="none" stroke="#e83f42" stroke-width="7" stroke-linecap="round" stroke-linejoin="round" stroke-miterlimit="10" d="
		M24.553,76.487c0,0,15.29,5.023,21.187,10.702"/>
</g>
</svg>
