<?xml version="1.0" encoding="utf-8"?>
<!-- Generator: Adobe Illustrator 16.0.3, SVG Export Plug-In . SVG Version: 6.00 Build 0)  -->
<!DOCTYPE svg PUBLIC "-//W3C//DTD SVG 1.1//EN" "http://www.w3.org/Graphics/SVG/1.1/DTD/svg11.dtd">
<svg version="1.1" id="Layer_1" xmlns="http://www.w3.org/2000/svg" xmlns:xlink="http://www.w3.org/1999/xlink" x="0px" y="0px"
	 width="411.001px" height="144px" viewBox="-145.625 0 411.001 144" enable-background="new -145.625 0 411.001 144"
	 xml:space="preserve">
<g id="Layer_1_1_" display="none">
</g>
<g id="Layer_2">
	<path fill="none" stroke="#e83f42" stroke-width="5" stroke-linecap="round" stroke-linejoin="round" stroke-miterlimit="10" d="
		M37.111,77.957c5.235-8.555,26.665-35.627,34.396-43.779c7.732-8.151,30.334-24.303,30.334-24.303s13.88,30.236,8.107,57.811
		c-5.572,26.632-23.679,44.994-36.974,54.505c-12.604,9.017-35.521,18.233-56.048,17.328
		C16.928,139.52,20.849,104.534,37.111,77.957z"/>
	<path fill="none" stroke="#e83f42" stroke-width="5" stroke-linecap="round" stroke-linejoin="round" stroke-miterlimit="10" d="
		M10.399,133.533c-0.637-1.539-4.713-17.105-5.925-32.84c-1.128-14.649,2.783-37.771,9.371-50.198
		c7.621-14.376,19.151-26.956,38.274-36.547c17.43-8.741,37.066-7.447,43.956-6.912L72.669,27.219c0,0-17.012,15.516-33.692,39.336
		c-16.564,23.652-23.21,56.939-23.21,56.939l-3.418,12.385l-0.443,1.09L10.399,133.533z"/>
	<path fill="none" stroke="#e83f42" stroke-width="7" stroke-linecap="round" stroke-linejoin="round" stroke-miterlimit="10" d="
		M66.708,24.721c0,0,9.61,3.494,19.002,11.576"/>
	<path fill="none" stroke="#e83f42" stroke-width="7" stroke-linecap="round" stroke-linejoin="round" stroke-miterlimit="10" d="
		M54.259,36.297c0,0,15.071,6.771,21.951,12.45"/>
	<path fill="none" stroke="#e83f42" stroke-width="7" stroke-linecap="round" stroke-linejoin="round" stroke-miterlimit="10" d="
		M42.027,48.747c0,0,11.117,3.495,22.814,12.231"/>
	<path fill="none" stroke="#e83f42" stroke-width="7" stroke-linecap="round" stroke-linejoin="round" stroke-miterlimit="10" d="
		M31.98,60.979c0,0,13.542,3.495,24.025,12.451"/>
	<path fill="none" stroke="#e83f42" stroke-width="7" stroke-linecap="round" stroke-linejoin="round" stroke-miterlimit="10" d="
		M24.553,76.486c0,0,15.29,5.023,21.187,10.703"/>
</g>
<path style="fill:#e83f42;" d="M199.576,63.556c-0.304-0.949-1.972-1.165-3.738-1.399c-0.969-0.127-2.069-0.271-2.401-0.517
	c-0.335-0.245-0.801-1.249-1.214-2.138c-0.749-1.614-1.46-3.138-2.453-3.14l-0.019-0.003c-0.984,0.017-1.702,1.521-2.465,3.119
	c-0.421,0.884-0.898,1.885-1.232,2.126c-0.336,0.241-1.437,0.376-2.407,0.493c-1.766,0.214-3.437,0.417-3.749,1.36
	c-0.312,0.943,0.908,2.102,2.2,3.327c0.709,0.674,1.513,1.438,1.64,1.83c0.126,0.393-0.088,1.483-0.274,2.44
	c-0.344,1.746-0.667,3.398,0.134,3.989c0.191,0.137,0.432,0.207,0.716,0.2c0.817-0.013,1.992-0.648,3.129-1.265
	c0.851-0.465,1.816-0.99,2.246-0.995c0.415,0,1.384,0.539,2.239,1.016c1.161,0.646,2.362,1.313,3.181,1.299
	c0.255-0.003,0.474-0.069,0.652-0.197c0.804-0.58,0.497-2.232,0.174-3.985c-0.178-0.959-0.377-2.052-0.251-2.444
	c0.13-0.392,0.941-1.146,1.659-1.814C198.646,65.646,199.877,64.504,199.576,63.556z"/>
<path style="fill:#e83f42;" d="M231.245,64.187c-0.305-0.949-1.973-1.165-3.739-1.399c-0.969-0.127-2.069-0.271-2.401-0.517
	c-0.334-0.245-0.8-1.249-1.213-2.138c-0.75-1.615-1.46-3.138-2.453-3.141l-0.019-0.002c-0.985,0.016-1.702,1.521-2.465,3.119
	c-0.421,0.884-0.898,1.885-1.232,2.126c-0.337,0.241-1.438,0.375-2.408,0.493c-1.765,0.214-3.437,0.417-3.748,1.36
	s0.908,2.102,2.2,3.327c0.709,0.674,1.513,1.437,1.64,1.83c0.126,0.393-0.088,1.483-0.275,2.44c-0.343,1.747-0.667,3.398,0.135,3.99
	c0.191,0.137,0.432,0.207,0.716,0.2c0.817-0.013,1.992-0.647,3.128-1.265c0.852-0.466,1.816-0.989,2.247-0.995
	c0.415,0,1.384,0.539,2.238,1.016c1.162,0.646,2.363,1.313,3.181,1.299c0.256-0.004,0.475-0.069,0.652-0.196
	c0.805-0.581,0.498-2.232,0.175-3.986c-0.178-0.959-0.377-2.052-0.251-2.444c0.129-0.392,0.941-1.145,1.659-1.813
	C230.314,66.276,231.546,65.135,231.245,64.187z"/>
<path style="fill:#e83f42;" d="M261.981,64.188c-0.304-0.949-1.972-1.166-3.738-1.399c-0.969-0.127-2.069-0.271-2.401-0.517
	c-0.334-0.245-0.8-1.249-1.213-2.138c-0.75-1.615-1.46-3.138-2.453-3.141l-0.019-0.002c-0.985,0.016-1.703,1.521-2.465,3.119
	c-0.421,0.883-0.898,1.884-1.232,2.126c-0.337,0.241-1.438,0.375-2.408,0.493c-1.766,0.214-3.437,0.417-3.748,1.36
	c-0.313,0.943,0.907,2.102,2.2,3.327c0.709,0.674,1.513,1.437,1.639,1.83c0.127,0.393-0.087,1.482-0.274,2.439
	c-0.343,1.747-0.667,3.398,0.135,3.99c0.191,0.137,0.432,0.207,0.716,0.2c0.817-0.013,1.992-0.647,3.128-1.265
	c0.852-0.466,1.816-0.989,2.247-0.995c0.415,0,1.384,0.539,2.238,1.016c1.162,0.646,2.363,1.313,3.181,1.299
	c0.256-0.004,0.475-0.069,0.652-0.196c0.805-0.581,0.498-2.232,0.175-3.986c-0.179-0.958-0.378-2.051-0.251-2.443
	c0.129-0.392,0.941-1.145,1.659-1.813C261.052,66.277,262.283,65.136,261.981,64.188z"/>
<path style="fill:#e83f42;" d="M-123.936,63.241c-0.304-0.949-1.972-1.165-3.738-1.399c-0.969-0.127-2.069-0.271-2.401-0.517
	c-0.335-0.245-0.801-1.249-1.214-2.138c-0.749-1.614-1.46-3.138-2.453-3.14l-0.019-0.003c-0.984,0.017-1.702,1.521-2.465,3.119
	c-0.421,0.884-0.898,1.885-1.232,2.126c-0.336,0.241-1.437,0.376-2.407,0.493c-1.766,0.214-3.437,0.417-3.749,1.36
	c-0.312,0.943,0.908,2.102,2.2,3.327c0.709,0.674,1.513,1.438,1.64,1.83c0.126,0.393-0.088,1.483-0.274,2.44
	c-0.344,1.746-0.667,3.398,0.134,3.989c0.191,0.137,0.432,0.207,0.716,0.2c0.817-0.013,1.992-0.648,3.129-1.265
	c0.851-0.465,1.816-0.99,2.246-0.995c0.415,0,1.384,0.539,2.239,1.016c1.161,0.646,2.362,1.313,3.181,1.299
	c0.255-0.003,0.474-0.069,0.652-0.197c0.804-0.58,0.497-2.232,0.174-3.985c-0.178-0.959-0.377-2.052-0.251-2.444
	c0.13-0.392,0.941-1.146,1.659-1.814C-124.867,65.33-123.635,64.188-123.936,63.241z"/>
<path style="fill:#e83f42;" d="M-92.267,63.872c-0.305-0.949-1.973-1.165-3.739-1.399c-0.969-0.127-2.069-0.271-2.401-0.517
	c-0.334-0.245-0.8-1.249-1.213-2.138c-0.75-1.615-1.46-3.138-2.453-3.141l-0.019-0.002c-0.985,0.016-1.702,1.521-2.465,3.119
	c-0.421,0.884-0.898,1.885-1.232,2.126c-0.337,0.241-1.438,0.375-2.408,0.493c-1.765,0.214-3.437,0.417-3.748,1.36
	s0.908,2.102,2.2,3.327c0.709,0.674,1.513,1.437,1.64,1.83c0.126,0.393-0.088,1.483-0.275,2.44c-0.343,1.747-0.667,3.398,0.135,3.99
	c0.191,0.137,0.432,0.207,0.716,0.2c0.817-0.013,1.992-0.647,3.128-1.265c0.852-0.466,1.816-0.989,2.247-0.995
	c0.415,0,1.384,0.539,2.238,1.016c1.162,0.646,2.363,1.313,3.181,1.299c0.256-0.004,0.475-0.069,0.652-0.196
	c0.805-0.581,0.498-2.232,0.175-3.986c-0.178-0.959-0.377-2.052-0.251-2.444c0.129-0.392,0.941-1.145,1.659-1.813
	C-93.198,65.961-91.966,64.819-92.267,63.872z"/>
<path style="fill:#e83f42;" d="M-61.531,63.873c-0.304-0.949-1.972-1.166-3.738-1.399c-0.969-0.127-2.069-0.271-2.401-0.517
	c-0.334-0.245-0.8-1.249-1.213-2.138c-0.75-1.615-1.46-3.138-2.453-3.141l-0.019-0.002c-0.985,0.016-1.703,1.521-2.465,3.119
	c-0.421,0.883-0.898,1.884-1.232,2.126c-0.337,0.241-1.438,0.375-2.408,0.493c-1.766,0.214-3.437,0.417-3.748,1.36
	c-0.313,0.943,0.907,2.102,2.2,3.327c0.709,0.674,1.513,1.437,1.639,1.83c0.127,0.393-0.087,1.482-0.274,2.439
	c-0.343,1.747-0.667,3.398,0.135,3.99c0.191,0.137,0.432,0.207,0.716,0.2c0.817-0.013,1.992-0.647,3.128-1.265
	c0.852-0.466,1.816-0.989,2.247-0.995c0.415,0,1.384,0.539,2.238,1.016c1.162,0.646,2.363,1.313,3.181,1.299
	c0.256-0.004,0.475-0.069,0.652-0.196c0.805-0.581,0.498-2.232,0.175-3.986c-0.179-0.958-0.378-2.051-0.251-2.443
	c0.129-0.392,0.941-1.145,1.659-1.813C-62.46,65.962-61.229,64.82-61.531,63.873z"/>
</svg>
